<svg xmlns="http://www.w3.org/2000/svg" width="92" height="19" viewBox="0 0 92 19">
    <g fill="none" fill-rule="evenodd">
        <path fill="#E15D29" d="M3.314 12.527l1.826 1.787v-4.068c0-.79-.448-1.758-1.014-2.302L2.321 6.177v4.07c0 .78.45 1.757.993 2.28zm6.054 5.854l-3.18-3.045c-.63-.606-1.724-1.022-2.627-1.022H.912l3.175 3.041a3.793 3.793 0 0 0 2.536 1.026h2.745zM5.14 6.248c0-.881.415-1.813 1.067-2.44L9.367.753v2.55c0 .867-.431 1.92-1.062 2.527L5.14 8.889v-2.64z"/>
        <path fill="#595A59" d="M53.229 12.5c0 .328-.27.59-.608.59l-1.765.003a.598.598 0 0 1-.608-.587v-2.352c0-.323.274-.585.608-.585l1.765-.005c.338 0 .608.262.608.585V12.5zm-.302-4.113l-2.32.006c-1.003 0-1.821.79-1.821 1.761v.412h-1.274V8.393h-1.518v5.875h1.518v-2.527h1.274v.765c0 .97.818 1.762 1.821 1.762l2.32-.005c1 0 1.82-.792 1.82-1.762v-2.352c0-.97-.82-1.762-1.82-1.762zm-12.278.006h3.867v5.875H43V9.57l-2.049-.001a.596.596 0 0 0-.606.585v2.352c0 .97-.817 1.762-1.822 1.762h-.487v-1.175h.184a.597.597 0 0 0 .606-.587v-2.352c0-.97.817-1.761 1.823-1.761zM12.324 11.33l1.387-3.76 1.42 3.76h-2.807zm.485-5.289l-3.441 8.227h1.872l.65-1.762h3.685l.668 1.762h1.81L14.61 6.041h-1.8zm42.492 2.352h5.357v1.176h-1.921v4.699h-1.515V9.569H55.3V8.393zm-32.359 4.113a.598.598 0 0 1-.607.587h-1.82a.596.596 0 0 1-.608-.587V10.153a.597.597 0 0 1 .607-.584h1.821c.334 0 .607.262.607.585v2.352zm-.303-4.113h-1.671c-.395 0-.76.123-1.06.33v-.92c0-.323.271-.585.606-.585h3.217V6.041H20.21c-1.003 0-1.82.791-1.82 1.762v4.703c0 .97.816 1.762 1.82 1.762h2.429c1.004 0 1.82-.792 1.82-1.762v-2.352c0-.97-.816-1.761-1.82-1.761zm13.281 4.113a.598.598 0 0 1-.607.587h-1.82a.597.597 0 0 1-.608-.587v-2.352c0-.323.272-.585.608-.585h1.82c.333 0 .607.262.607.585v2.352zm-.305-4.113h-2.428c-1.002 0-1.82.79-1.82 1.761v2.352c0 .97.818 1.762 1.82 1.762h2.428c1.006 0 1.823-.792 1.823-1.762v-2.352c0-.97-.817-1.761-1.823-1.761zm-8.642 1.761v2.352c0 .326.27.587.606.587h2.999v1.175h-3.304c-1.002 0-1.82-.792-1.82-1.762v-2.352c0-.97.818-1.761 1.82-1.761h3.304v1.176h-2.999a.596.596 0 0 0-.606.585zm41.336 1.696c0 .686-.575 1.243-1.284 1.243h-2.322v-3.02h2.322c.709 0 1.284.555 1.284 1.243v.534zm-.792-2.955h-2.814V7.217h4.674V6.04h-6.19v8.227h4.33c1.38 0 2.5-1.082 2.5-2.418v-.534c0-1.335-1.12-2.421-2.5-2.421zm20.107 2.846h-.553v2.527h-1.52V8.393h1.52v2.173h.555l2.006-2.173h1.707l-2.56 2.766 2.733 3.109h-1.9l-1.988-2.527zm-12.23 1.352h-2.43a.598.598 0 0 1-.61-.587v-.062c0-.326.272-.591.61-.591h2.43v1.24zm-.307-4.7h-3.822v1.176h3.518a.6.6 0 0 1 .611.585v.524h-2.736c-1.002 0-1.82.791-1.82 1.766v.062c0 .97.818 1.762 1.82 1.762h4.249v-4.114c0-.97-.816-1.761-1.82-1.761zm7.614 0h1.518v5.875H82.7v-2.527h-2.973v2.527h-1.52V8.393h1.52v2.173h2.973V8.393z"/>
    </g>
</svg>
