<svg xmlns="http://www.w3.org/2000/svg" xmlns:xlink="http://www.w3.org/1999/xlink" width="78" height="17" viewBox="0 0 78 17">
    <defs>
        <path id="a" d="M0 15.91h76.666V.083H0z"/>
    </defs>
    <g fill="none" fill-rule="evenodd">
        <path fill="#EF3124" d="M74.762 4.09l-2.656 2.8v-2.8h-1.922v7.07h1.922V8.185l2.843 2.977h2.483l-3.497-3.706 3.243-3.366zM67.011 6.727h-2.714V4.089h-1.965v7.072h1.965V8.372h2.714v2.789h1.965V4.089h-1.965z"/>
        <g transform="translate(.724 .554)">
            <path fill="#EF3124" d="M11.24 7.19c-.045 1.392-.224 1.67-1 1.67v1.75h.29c1.935 0 2.4-1.007 2.472-3.247l.078-2.478h1.815v5.725h1.893V3.15H11.37l-.131 4.04zM21.348 8.967h-1.222V7.072h1.222c.657 0 1.052.291 1.052.914 0 .676-.381.98-1.052.98m.145-3.55h-1.367V3.148h-1.893v7.46h3.286c2.064 0 2.8-1.35 2.8-2.623 0-1.643-1.025-2.57-2.826-2.57M30.485 8.98V4.766c1.051.146 1.709.94 1.709 2.107 0 1.166-.658 1.961-1.71 2.107zm-1.893 0c-1.052-.146-1.71-.941-1.71-2.107 0-1.166.658-1.961 1.71-2.107V8.98zm1.893-6.003V.207h-1.893v2.77c-2.17.185-3.629 1.736-3.629 3.896 0 2.173 1.46 3.724 3.629 3.91v2.809h1.893v-2.81c2.169-.172 3.628-1.736 3.628-3.91 0-2.172-1.46-3.723-3.628-3.895zM39.319 7.827c0 .861-.605 1.352-1.394 1.352-.683 0-1.222-.252-1.222-.994 0-.73.591-.848 1.104-.848h1.512v.49zm1.893.49V5.813c0-1.829-1.157-2.982-3.102-2.982-2.012 0-3.077 1.22-3.169 2.491h1.92c.065-.278.355-.755 1.249-.755.736 0 1.209.345 1.209 1.246h-1.88c-1.683 0-2.682.888-2.682 2.372 0 1.55 1.093 2.61 2.669 2.61 1.155 0 1.797-.55 2.077-.967.25.504.802.782 1.525.782h.657V8.887c-.342 0-.473-.159-.473-.57zM49.231 8.728h-2.024V6.025h2.024c1.052 0 1.643.49 1.643 1.351 0 .888-.591 1.352-1.643 1.352m.092-4.519h-2.116V2.102h4.903V.207h-6.888V10.61h4.101c2.274 0 3.576-1.14 3.576-3.234 0-1.974-1.302-3.167-3.576-3.167M58.25 7.827c0 .861-.605 1.352-1.394 1.352-.684 0-1.223-.252-1.223-.994 0-.73.592-.848 1.104-.848h1.512v.49zm1.892.49V5.813c0-1.829-1.157-2.982-3.102-2.982-2.011 0-3.076 1.22-3.168 2.491h1.919c.066-.278.355-.755 1.249-.755.736 0 1.21.345 1.21 1.246h-1.88c-1.683 0-2.682.888-2.682 2.372 0 1.55 1.093 2.61 2.668 2.61 1.156 0 1.797-.55 2.077-.967.25.504.802.782 1.525.782h.658V8.887c-.342 0-.474-.159-.474-.57z"/>
            <mask id="b" fill="#fff">
                <use xlink:href="#a"/>
            </mask>
            <path fill="#EF3124" d="M0 15.91h10.123v-2.12H0zM3.615 6.674l1.42-4.254h.052l1.341 4.254H3.615zm3.286-5.04C6.613.768 6.28.083 5.141.083 4 .082 3.645.764 3.341 1.635L.21 10.61h2.077l.723-2.134h3.997l.67 2.134h2.209L6.9 1.635z" mask="url(#b)"/>
        </g>
    </g>
</svg>
